HIERARCHY
ROOT SpineBase
{
  OFFSET 0.000000 0.000000 0.000000
  CHANNELS 6 Xposition Yposition Zposition Zrotation Xrotation Yrotation
  JOINT SpineMid
  {
    OFFSET 0.000000 28.447061 0.000000
    CHANNELS 3 Zrotation Xrotation Yrotation
    JOINT SpineShoulder
    {
      OFFSET -0.507998 20.936316 -0.564778
      CHANNELS 3 Zrotation Xrotation Yrotation
      JOINT Neck
      {
        OFFSET -0.362579 6.859873 -0.375317
        CHANNELS 3 Zrotation Xrotation Yrotation
        JOINT Head
        {
          OFFSET -3.127200 12.026765 0.998627
          CHANNELS 3 Zrotation Xrotation Yrotation
          End Site
          {
            OFFSET 0 0 0
          }
        }
      }
      JOINT ShoulderLeft
      {
        OFFSET -11.737462 -5.536303 6.575728
        CHANNELS 3 Zrotation Xrotation Yrotation
        JOINT ElbowLeft
        {
          OFFSET -1.058212 -19.620792 2.787120
          CHANNELS 3 Zrotation Xrotation Yrotation
          JOINT WristLeft
          {
            OFFSET 0.362974 -20.067895 -1.265821
            CHANNELS 3 Zrotation Xrotation Yrotation
            JOINT HandLeft
            {
              OFFSET -0.590855 -13.812255 0.822612
              CHANNELS 3 Zrotation Xrotation Yrotation
              JOINT HandTipLeft
              {
                OFFSET 0.663392 -5.250716 -1.495041
                CHANNELS 3 Zrotation Xrotation Yrotation
                End Site
                {
                  OFFSET 0 0 0
                }
              }
              JOINT ThumbLeft
              {
                OFFSET 1.053001 0.712739 -4.853339
                CHANNELS 3 Zrotation Xrotation Yrotation
                End Site
                {
                  OFFSET 0 0 0
                }
              }
            }
          }
        }
      }
      JOINT ShoulderRight
      {
        OFFSET 8.585214 -3.867399 -12.355222
        CHANNELS 3 Zrotation Xrotation Yrotation
        JOINT ElbowRight
        {
          OFFSET 3.786763 -19.270273 -5.283094
          CHANNELS 3 Zrotation Xrotation Yrotation
          JOINT WristRight
          {
            OFFSET -2.950627 -19.855924 -4.178832
            CHANNELS 3 Zrotation Xrotation Yrotation
            JOINT HandRight
            {
              OFFSET -2.891148 -6.641922 0.725742
              CHANNELS 3 Zrotation Xrotation Yrotation
              JOINT HandTipRight
              {
                OFFSET -3.430943 -7.800570 -2.431647
                CHANNELS 3 Zrotation Xrotation Yrotation
                End Site
                {
                  OFFSET 0 0 0
                }
              }
              JOINT ThumbRight
              {
                OFFSET -2.795406 2.303020 5.486436
                CHANNELS 3 Zrotation Xrotation Yrotation
                End Site
                {
                  OFFSET 0 0 0
                }
              }
            }
          }
        }
      }
    }
  }
  JOINT HipLeft
  {
    OFFSET -4.773414 0.043862 0.944835
    CHANNELS 3 Zrotation Xrotation Yrotation
    JOINT KneeLeft
    {
      OFFSET 8.268323 -31.441378 6.751378
      CHANNELS 3 Zrotation Xrotation Yrotation
      JOINT AnkleLeft
      {
        OFFSET 7.109908 -30.372609 6.146485
        CHANNELS 3 Zrotation Xrotation Yrotation
        JOINT FootLeft
        {
          OFFSET -5.544226 -3.273399 -9.231651
          CHANNELS 3 Zrotation Xrotation Yrotation
          End Site
          {
            OFFSET 0 0 0
          }
        }
      }
    }
  }
  JOINT HipRight
  {
    OFFSET 4.135400 1.462533 -7.288304
    CHANNELS 3 Zrotation Xrotation Yrotation
    JOINT KneeRight
    {
      OFFSET 10.556645 -30.382340 4.695899
      CHANNELS 3 Zrotation Xrotation Yrotation
      JOINT AnkleRight
      {
        OFFSET 7.179753 -30.891888 5.790263
        CHANNELS 3 Zrotation Xrotation Yrotation
        JOINT FootRight
        {
          OFFSET -5.412012 -3.257909 -9.045714
          CHANNELS 3 Zrotation Xrotation Yrotation
          End Site
          {
            OFFSET 0 0 0
          }
        }
      }
    }
  }
}
MOTION
Frames: 8
Frame Time: 0.033333
28.524052 69.447553 355.130148 -0.000000 0.000000 42.742769 -0.000000 0.000000 -42.742769 -0.000000 0.000000 0.000000 -0.000000 0.000000 0.000000 0.000000 0.000000 0.000000 -0.000000 0.000000 0.000000 -0.000000 0.000000 0.000000 -0.000000 0.000000 0.000000 -0.000000 0.000000 0.000000 0.000000 0.000000 0.000000 0.000000 0.000000 0.000000 -0.000000 0.000000 0.000000 -0.000000 0.000000 0.000000 -0.000000 0.000000 0.000000 -0.000000 0.000000 0.000000 0.000000 0.000000 0.000000 0.000000 0.000000 0.000000 -0.000000 0.000000 -42.742769 -0.000000 0.000000 0.000000 -0.000000 0.000000 0.000000 0.000000 0.000000 0.000000 -0.000000 0.000000 -42.742769 -0.000000 0.000000 0.000000 -0.000000 0.000000 0.000000 0.000000 0.000000 0.000000
28.667812 69.575300 354.854540 0.497603 0.299498 42.382502 -0.569442 0.114200 -42.383235 -0.000000 0.000000 0.000000 -0.825474 0.053323 0.082945 0.000000 0.000000 0.000000 -0.000000 0.000000 0.000000 -0.000000 0.000000 0.000000 1.171470 0.736596 0.030756 -2.230596 -1.736229 0.106549 0.000000 0.000000 0.000000 0.000000 0.000000 0.000000 3.859763 -1.959890 -1.374987 -10.992856 5.642678 2.827239 2.035413 2.915915 -4.185205 -2.689797 -9.275919 6.139936 0.000000 0.000000 0.000000 0.000000 0.000000 0.000000 -0.569442 0.114200 -42.383235 -0.000000 0.000000 0.000000 0.642177 -0.877325 -0.330469 0.000000 0.000000 0.000000 -0.569442 0.114200 -42.383235 -0.000000 0.000000 0.000000 2.074208 -4.280681 1.653302 0.000000 0.000000 0.000000
28.771984 69.739991 354.612807 0.904152 0.563673 41.997093 -1.049079 0.186086 -41.999837 -0.000000 0.000000 0.000000 -1.477001 0.081433 0.145350 0.000000 0.000000 0.000000 -0.000000 0.000000 0.000000 0.731397 -0.715805 -0.054528 1.374885 2.228104 0.070498 -4.512096 -3.987716 0.167064 0.000000 0.000000 0.000000 0.000000 0.000000 0.000000 6.911858 -3.123242 -2.312001 -21.268712 9.504869 5.944209 3.375457 5.669718 -7.780516 -4.621043 -18.078054 10.550782 0.000000 0.000000 0.000000 0.000000 0.000000 0.000000 -2.127766 -0.298106 -42.387542 0.470385 1.084788 0.382197 1.576452 -2.292537 -0.577231 0.000000 0.000000 0.000000 -1.877864 0.371107 -42.255482 1.212196 1.231574 0.527855 3.665889 -9.113510 3.141653 0.000000 0.000000 0.000000
28.836566 69.941627 354.404948 1.218448 0.792162 41.590829 -1.437081 0.216445 -41.596538 -0.000000 0.000000 0.000000 -1.956232 0.085101 0.186848 0.000000 0.000000 0.000000 -0.379002 -1.030834 -0.001647 1.275147 -0.272712 -0.091263 1.916708 3.629614 0.037481 -6.790479 -6.754651 0.128423 0.000000 0.000000 0.000000 0.000000 0.000000 0.000000 9.232787 -3.464390 -2.915178 -31.085796 11.939827 8.966233 4.017024 8.150218 -10.954159 -6.106145 -26.101405 13.428474 0.000000 0.000000 0.000000 0.000000 0.000000 0.000000 -2.916060 -0.320357 -42.122201 0.737127 1.390060 0.515380 2.844387 -4.316911 -0.705750 0.000000 0.000000 0.000000 -2.506433 0.485276 -41.918730 1.555445 1.518589 0.656644 5.502696 -12.762368 4.736858 0.000000 0.000000 0.000000
28.861559 70.180207 354.230963 1.439105 0.984557 41.167635 -1.731362 0.206321 -41.176883 -0.000000 0.000000 0.000000 -2.264373 0.064830 0.207237 0.000000 0.000000 0.000000 -0.519707 -1.216652 -0.013698 1.446702 -0.828471 -0.096059 2.370460 5.225262 -0.036798 -8.912206 -9.885789 -0.054208 0.000000 0.000000 0.000000 0.000000 0.000000 0.000000 10.877605 -2.958091 -3.252171 -40.715264 13.280344 11.647674 3.960315 10.266668 -13.855279 -7.398004 -33.006360 14.862508 0.000000 0.000000 0.000000 0.000000 0.000000 0.000000 -3.533879 -0.260871 -41.807330 1.032429 1.549732 0.615625 4.499884 -7.027412 -0.661908 0.000000 0.000000 0.000000 -2.920904 0.554475 -41.524818 1.725314 1.588041 0.699605 7.088074 -15.460453 6.080980 0.000000 0.000000 0.000000
28.846962 70.455731 354.090852 1.564514 1.140377 40.730981 -1.054221 0.295487 -40.715503 -0.573151 -0.675956 -0.035243 -2.402067 0.020847 0.206462 0.000000 0.000000 0.000000 -0.667544 -1.323263 -0.031102 1.491253 -1.618561 -0.087530 2.741801 7.018230 -0.146120 -10.649955 -13.079751 -0.378796 0.000000 0.000000 0.000000 0.000000 0.000000 0.000000 11.869293 -1.558735 -3.353064 -50.462908 13.831336 13.820678 3.268047 11.873477 -16.627486 -8.686801 -38.270367 14.959449 0.000000 0.000000 0.000000 0.000000 0.000000 0.000000 -3.987384 -0.114893 -41.447453 1.362871 1.565745 0.685676 6.612120 -10.495223 -0.364500 0.000000 0.000000 0.000000 -3.117916 0.581669 -41.076931 1.722176 1.441299 0.657841 8.226722 -17.034511 6.973323 0.000000 0.000000 0.000000
28.725249 70.780640 354.001160 1.519604 1.234913 39.923343 -1.038255 0.305741 -39.908214 -0.527530 -0.802619 -0.037398 -2.355412 -0.084188 0.172920 0.000000 0.000000 0.000000 -0.930595 -1.549544 -0.061057 1.621572 -2.869281 -0.079906 2.892378 10.611898 -0.373629 -13.447702 -19.639742 -1.373978 0.000000 0.000000 0.000000 0.000000 0.000000 0.000000 13.231806 0.199237 -3.544143 -64.429657 14.264063 16.936600 1.892208 12.364102 -20.131646 -11.971688 -38.119631 13.751341 0.000000 0.000000 0.000000 0.000000 0.000000 0.000000 -3.972147 -0.427290 -40.646934 1.231949 1.657677 0.682864 9.345837 -14.940390 0.532062 0.000000 0.000000 0.000000 -2.940877 0.359814 -40.216967 1.366694 1.298676 0.560994 6.755024 -14.355320 5.430398 0.000000 0.000000 0.000000
28.740796 71.569251 353.792542 1.698967 1.585211 40.508305 -1.245033 0.287638 -40.496215 -0.566043 -0.994547 -0.044310 -2.271221 -0.167780 0.142412 0.000000 0.000000 0.000000 -1.125705 -1.536160 -0.091924 1.374841 -4.357476 -0.054618 2.799278 13.064570 -0.497664 -12.196242 -21.350800 -1.662900 0.000000 0.000000 0.000000 0.000000 0.000000 0.000000 12.977877 3.626243 -3.173723 -76.154040 14.190842 17.998637 2.526204 12.071436 -23.235517 -14.502139 -39.688453 12.489310 0.000000 0.000000 0.000000 0.000000 0.000000 0.000000 -4.684041 0.322304 -41.295157 2.054866 1.240974 0.743601 13.694071 -21.479924 2.361366 0.000000 0.000000 0.000000 -3.959917 0.300154 -41.029652 2.144486 1.624929 0.793996 7.991296 -16.858691 7.490338 0.000000 0.000000 0.000000
